<svg width="658" height="54" viewBox="0 0 658 54" fill="none" xmlns="http://www.w3.org/2000/svg">
<path opacity="0.5" d="M0.75057 52.64C0.75057 52.64 20.7178 35.5407 35.2394 33.9846C49.7611 32.4285 49.7611 38.6352 65.4928 38.6352C81.2246 38.6352 73.9638 17.8874 98.7716 17.8874C123.579 17.8874 136.891 38.1166 153.228 38.6353C169.565 39.154 185.901 -0.266742 210.709 0.770694C235.517 1.80813 219.61 19.788 257.299 17.8874C288.096 16.3344 274.846 33.4485 308.125 33.4485C334.337 33.4485 341.085 43.2346 362.581 47.4532C391.574 53.1429 408.891 38.3215 431.559 33.4485C472.886 24.5642 461.406 40.2532 496.301 35.5233C527.243 31.3291 510.218 15.8129 559.833 15.8129C592.361 15.8129 600.008 39.6197 632.441 38.6354C646.531 38.2078 657.249 43.8528 657.249 43.8528" stroke="#656575" stroke-width="1.5" stroke-linecap="round" stroke-dasharray="4 4"/>
</svg>
