<svg width="658" height="61" viewBox="0 0 658 61" fill="none" xmlns="http://www.w3.org/2000/svg">
<path d="M0.750692 0.750753L6.50945 13.356C12.2682 25.9613 23.7857 51.1719 35.3033 57.692C46.8208 64.2121 58.3383 52.0416 69.8558 37.7283C81.3733 23.4149 92.8909 6.95861 104.408 2.53296C115.926 -1.89268 127.443 5.71234 138.961 19.0406C150.478 32.3688 161.996 51.4203 173.514 53.745C185.031 56.0698 196.549 41.6679 208.066 38.6831C219.584 35.6983 231.101 44.1307 242.619 50.3087C254.136 56.4867 265.654 60.4103 277.171 59.8333C288.689 59.2564 300.206 54.1787 311.724 42.9997C323.241 31.8207 334.759 14.5403 346.276 11.077C357.794 7.61371 369.311 17.9675 380.829 16.4321C392.346 14.8967 403.864 1.47214 415.381 4.57145C426.899 7.67077 438.416 27.294 449.934 30.3488C461.452 33.4035 472.969 19.8898 484.487 12.2368C496.004 4.58383 507.522 2.79151 519.039 5.33751C530.557 7.88352 542.074 14.7678 553.592 17.9715C565.109 21.1752 576.627 20.6982 588.144 24.3968C599.662 28.0955 611.179 35.9697 622.697 33.7794C634.214 31.5892 645.732 19.3345 651.491 13.2071L657.249 7.0798" stroke="#006AFF" stroke-opacity="0.8" stroke-width="1.5" stroke-linecap="round"/>
</svg>
